<svg version="1.1" xmlns="http://www.w3.org/2000/svg" viewBox="0 0 500 500" width="500" height="500">
  <g transform="translate(0,500) scale(0.025,-0.025)" fill="#00939c" stroke="none">
    <path d="M9790 19454 c-19 -2 -129 -9 -245 -14 -260 -13 -434 -28 -695 -59
-111 -13 -386 -57 -505 -80 -27 -5 -75 -14 -105 -20 -30 -6 -75 -15 -100 -20
-25 -6 -67 -15 -95 -21 -27 -5 -70 -15 -95 -20 -25 -6 -63 -15 -85 -19 -42 -9
-306 -77 -410 -106 -33 -9 -73 -20 -90 -25 -78 -21 -378 -119 -397 -130 -10
-6 -27 -10 -37 -10 -11 0 -23 -4 -26 -10 -3 -5 -16 -10 -29 -10 -12 0 -26 -4
-32 -8 -5 -4 -27 -14 -49 -21 -22 -7 -50 -17 -62 -22 -44 -18 -68 -27 -103
-39 -19 -7 -48 -18 -65 -25 -16 -8 -82 -34 -145 -58 -63 -25 -137 -55 -165
-68 -119 -52 -144 -63 -215 -96 -222 -103 -709 -357 -755 -393 -5 -4 -27 -17
-47 -29 -65 -36 -101 -57 -173 -101 -98 -60 -431 -279 -486 -321 -25 -19 -75
-54 -110 -79 -207 -147 -486 -373 -753 -609 -118 -104 -516 -496 -636 -626
-71 -77 -306 -346 -353 -404 -9 -12 -44 -54 -76 -94 -81 -101 -336 -440 -357
-477 -10 -16 -22 -30 -26 -30 -4 0 -8 -5 -8 -11 0 -6 -13 -28 -29 -48 -15 -20
-72 -103 -124 -186 -53 -82 -101 -155 -107 -162 -5 -7 -10 -15 -10 -18 0 -4
-13 -26 -30 -50 -16 -24 -30 -47 -30 -50 0 -4 -8 -19 -19 -33 -10 -15 -28 -44
-40 -64 -11 -21 -30 -54 -41 -73 -156 -274 -285 -525 -433 -845 -14 -30 -44
-100 -67 -155 -23 -55 -59 -142 -81 -193 -21 -51 -39 -99 -39 -107 0 -7 -4
-16 -9 -19 -5 -3 -11 -16 -14 -28 -8 -36 -63 -188 -70 -195 -4 -3 -7 -17 -7
-30 0 -13 -4 -23 -10 -23 -5 0 -10 -9 -10 -20 0 -11 -4 -28 -9 -38 -5 -9 -19
-51 -31 -92 -13 -41 -35 -113 -50 -160 -15 -47 -33 -105 -40 -130 -7 -25 -16
-56 -21 -70 -10 -31 -106 -416 -121 -485 -12 -61 -25 -122 -38 -195 -6 -30
-15 -77 -20 -105 -39 -204 -74 -440 -101 -690 -66 -617 -66 -1355 0 -2045 19
-200 60 -499 91 -665 5 -27 14 -79 20 -115 6 -36 15 -81 20 -100 4 -19 13 -60
20 -90 26 -130 99 -434 120 -505 10 -33 27 -94 39 -135 29 -100 81 -270 92
-295 4 -11 13 -38 20 -60 13 -45 27 -82 40 -107 5 -10 9 -25 9 -33 0 -8 4 -23
9 -33 12 -23 26 -60 41 -102 7 -19 16 -44 20 -55 4 -11 23 -58 41 -105 29 -75
123 -302 166 -400 32 -73 254 -519 301 -605 27 -49 66 -121 87 -160 21 -38 46
-82 57 -97 10 -14 18 -29 18 -33 0 -3 13 -26 30 -50 16 -24 30 -46 30 -50 0
-3 23 -39 50 -80 28 -41 50 -76 50 -79 0 -7 190 -293 275 -415 77 -110 257
-350 327 -436 27 -33 55 -67 61 -75 21 -27 102 -125 107 -130 3 -3 30 -34 60
-70 30 -36 57 -67 60 -70 3 -3 37 -41 75 -85 108 -123 398 -417 610 -620 55
-53 253 -228 321 -284 48 -40 149 -126 154 -131 3 -3 21 -17 42 -32 20 -15 42
-33 50 -41 7 -7 67 -52 133 -101 66 -49 155 -115 198 -148 42 -32 81 -58 86
-58 5 0 11 -4 13 -9 2 -6 335 -230 414 -278 10 -6 60 -36 109 -66 50 -30 108
-65 130 -77 22 -12 45 -26 50 -30 6 -5 35 -22 65 -38 30 -16 72 -39 93 -50 20
-12 54 -32 75 -44 49 -28 339 -172 477 -237 61 -29 118 -56 127 -61 10 -6 25
-10 33 -10 8 0 15 -4 15 -10 0 -5 6 -10 13 -10 8 0 27 -6 43 -14 16 -8 46 -21
66 -30 21 -9 53 -22 70 -30 171 -75 629 -238 798 -285 25 -7 53 -17 62 -22 10
-5 29 -9 42 -9 14 0 28 -4 31 -10 3 -5 17 -10 31 -10 13 0 32 -4 42 -9 29 -14
87 -31 110 -31 11 0 23 -4 26 -9 3 -5 20 -11 38 -14 18 -3 69 -15 113 -27 44
-12 91 -24 105 -26 14 -3 61 -14 105 -24 44 -10 105 -24 135 -30 30 -6 73 -15
95 -20 56 -13 309 -56 440 -76 248 -36 294 -42 530 -65 697 -68 1610 -53 2265
36 168 23 528 83 635 105 251 54 459 104 503 121 13 5 34 9 47 9 13 0 27 4 30
10 3 5 19 10 35 10 16 0 32 4 35 10 3 5 17 10 31 10 13 0 32 4 42 9 9 5 37 15
62 21 25 7 54 16 65 20 11 4 54 18 95 30 41 12 84 25 95 29 11 5 38 14 60 20
22 7 49 16 60 21 11 4 97 36 190 70 94 34 186 69 205 77 35 15 60 25 103 42
12 5 45 19 72 31 28 12 59 26 70 30 11 4 52 22 90 40 39 18 88 40 110 50 22
10 141 68 265 129 249 124 323 163 460 245 25 15 53 29 63 33 9 3 17 9 17 14
0 5 4 9 9 9 26 0 441 266 691 442 120 84 332 245 439 334 230 189 345 288 401
344 14 14 52 49 85 79 155 141 448 437 585 592 47 52 113 126 147 165 34 38
72 83 84 99 13 17 26 32 29 35 5 5 73 87 110 133 8 11 20 24 25 31 6 6 33 40
60 76 27 36 55 72 62 80 6 8 33 44 60 80 26 36 50 67 53 70 3 3 10 12 15 21 6
9 37 54 69 100 92 130 256 378 256 387 0 5 9 17 20 27 11 10 20 22 20 28 0 5
8 21 19 35 10 15 28 43 39 62 11 19 38 66 62 104 135 221 360 646 465 881 69
154 109 246 137 315 16 41 36 91 45 110 30 70 44 106 63 160 15 42 29 79 41
102 5 10 9 25 9 33 0 8 5 25 12 38 24 47 28 57 28 75 0 10 3 22 7 25 10 10 52
139 53 160 0 16 -63 17 -1180 17 l-1180 0 -10 -25 c-32 -84 -168 -371 -214
-450 -12 -22 -42 -76 -66 -120 -67 -124 -91 -165 -132 -227 -21 -31 -38 -59
-38 -63 0 -26 -422 -619 -480 -675 -3 -3 -21 -25 -40 -50 -51 -66 -133 -163
-219 -259 -105 -117 -423 -439 -474 -479 -23 -19 -64 -55 -92 -81 -27 -26 -60
-54 -73 -63 -12 -8 -39 -30 -60 -49 -20 -19 -54 -47 -75 -64 -21 -16 -55 -43
-76 -60 -21 -16 -76 -58 -122 -93 -46 -35 -92 -69 -101 -77 -39 -32 -361 -243
-492 -323 -136 -83 -170 -102 -321 -182 -38 -20 -95 -50 -125 -67 -30 -16
-143 -68 -250 -117 -215 -96 -233 -104 -312 -135 -13 -4 -36 -14 -53 -21 -16
-7 -40 -17 -52 -21 -13 -5 -33 -13 -45 -18 -13 -5 -41 -15 -63 -22 -22 -7 -44
-17 -49 -21 -6 -4 -18 -8 -28 -8 -10 0 -26 -4 -36 -10 -43 -24 -429 -139 -617
-185 -38 -9 -86 -21 -105 -26 -50 -13 -203 -44 -345 -70 -687 -126 -1460 -147
-2165 -59 -270 33 -474 68 -660 110 -52 13 -106 25 -120 28 -14 2 -77 18 -140
34 -63 16 -142 36 -175 44 -33 9 -69 19 -80 23 -11 5 -67 23 -125 41 -58 18
-113 36 -122 41 -10 5 -27 9 -37 9 -11 0 -23 5 -26 10 -3 6 -15 10 -26 10 -10
0 -28 5 -39 10 -11 6 -29 15 -40 20 -11 5 -27 10 -35 10 -8 0 -23 4 -33 9 -16
8 -36 17 -97 41 -14 6 -37 15 -52 21 -16 7 -37 15 -48 19 -11 5 -41 17 -67 29
-26 12 -50 21 -53 21 -18 0 -532 245 -545 260 -3 3 -18 12 -35 20 -75 37 -333
191 -455 273 -431 287 -791 609 -1017 908 -75 100 -173 244 -173 254 0 4 -13
25 -28 48 -117 175 -254 553 -303 837 -47 273 -47 678 0 940 24 134 62 281 91
355 5 11 27 70 51 130 45 118 91 212 151 312 21 35 38 67 38 73 0 5 4 10 8 10
5 0 15 12 23 27 8 15 19 35 26 43 7 8 33 44 59 80 102 138 253 300 374 400 30
25 57 47 60 50 73 75 397 267 560 332 14 6 33 14 42 19 10 5 27 9 37 9 11 0
23 5 26 10 3 6 17 10 30 10 13 0 26 4 29 9 3 5 20 11 38 14 32 6 76 15 188 39
42 9 1579 13 6425 17 l6370 6 7 60 c34 286 45 1198 20 1545 -23 308 -29 372
-63 633 -28 218 -79 520 -119 700 -39 180 -47 211 -71 302 -11 44 -23 91 -26
105 -12 57 -86 319 -103 365 -4 11 -13 40 -20 65 -7 25 -16 54 -20 65 -5 11
-14 38 -21 60 -6 22 -15 48 -20 57 -5 10 -9 26 -9 36 0 10 -4 22 -8 27 -4 6
-14 28 -21 50 -13 42 -27 78 -42 107 -5 10 -9 25 -9 33 0 8 -4 23 -9 33 -5 9
-13 28 -18 42 -6 14 -15 37 -22 53 -6 15 -16 39 -22 55 -14 34 -29 71 -39 97
-105 272 -323 719 -518 1060 -110 193 -136 235 -263 435 -69 109 -316 469
-328 480 -3 3 -40 50 -81 105 -41 55 -117 153 -170 219 -52 65 -104 130 -115
145 -11 14 -38 46 -61 71 -23 25 -55 61 -70 80 -16 19 -50 58 -75 85 -26 28
-66 73 -90 100 -139 161 -542 551 -778 754 -47 40 -97 83 -111 95 -100 86
-448 353 -555 426 -27 18 -52 37 -55 41 -10 14 -437 290 -540 350 -14 8 -27
16 -30 19 -3 3 -16 11 -29 18 -36 21 -87 50 -128 73 -94 54 -135 76 -233 128
-154 82 -486 245 -620 305 -111 49 -295 126 -302 126 -5 0 -30 9 -56 21 -26
12 -57 25 -69 30 -59 23 -79 32 -95 40 -10 5 -25 9 -33 9 -8 0 -23 4 -33 9
-29 15 -65 29 -107 42 -22 7 -44 17 -50 21 -5 4 -17 8 -27 8 -10 0 -26 4 -36
10 -25 14 -376 128 -482 156 -151 41 -290 77 -330 86 -44 10 -64 15 -160 38
-25 6 -65 15 -90 20 -25 5 -67 14 -95 20 -292 64 -731 128 -1095 160 -277 25
-952 46 -1060 34z m790 -2193 c163 -12 167 -12 455 -51 174 -24 466 -77 655
-120 19 -4 51 -11 70 -15 19 -4 46 -10 60 -15 14 -4 44 -13 68 -19 23 -6 61
-16 85 -22 23 -6 53 -15 67 -19 14 -4 59 -18 100 -30 41 -12 84 -26 95 -30 11
-4 40 -14 65 -21 25 -7 49 -16 54 -21 6 -4 19 -8 31 -8 12 0 25 -4 31 -8 5 -4
27 -14 49 -21 22 -7 49 -16 60 -21 11 -4 58 -22 105 -40 47 -18 94 -36 105
-40 102 -41 137 -55 183 -76 29 -13 55 -24 58 -24 6 0 290 -135 319 -152 11
-7 61 -33 110 -58 91 -47 116 -61 213 -119 29 -17 55 -31 58 -31 3 0 37 -20
75 -45 38 -25 72 -45 74 -45 4 0 298 -194 320 -212 6 -4 75 -56 155 -115 80
-59 147 -109 150 -112 3 -4 21 -18 42 -33 20 -15 42 -33 50 -41 7 -7 35 -30
63 -52 126 -102 326 -283 494 -449 217 -215 371 -385 581 -645 19 -24 40 -48
45 -55 6 -6 32 -40 58 -76 27 -36 54 -72 60 -80 7 -8 44 -60 82 -115 38 -55
73 -101 77 -103 4 -2 8 -9 8 -15 0 -7 11 -25 25 -41 13 -16 27 -37 30 -47 4
-11 11 -19 16 -19 5 0 9 -6 9 -13 0 -7 8 -22 18 -33 9 -11 23 -31 31 -45 8
-13 36 -59 63 -102 26 -43 48 -80 48 -83 0 -2 17 -32 38 -66 88 -144 212 -379
325 -618 40 -83 197 -470 197 -484 0 -7 4 -16 8 -21 5 -6 19 -44 32 -85 13
-41 27 -79 32 -85 4 -5 8 -19 8 -31 0 -13 5 -26 10 -29 6 -3 10 -17 10 -30 0
-13 5 -27 10 -30 6 -3 10 -17 10 -31 0 -13 4 -32 9 -42 5 -9 14 -37 21 -62 7
-25 16 -53 21 -62 5 -10 9 -27 9 -38 0 -11 4 -28 9 -38 13 -26 31 -86 31 -105
0 -10 4 -25 9 -35 5 -9 19 -60 30 -112 12 -52 26 -113 31 -135 22 -94 50 -233
56 -272 l7 -43 -5259 -3 c-3843 -2 -5285 -6 -5354 -15 -167 -20 -411 -66 -535
-101 -16 -4 -50 -14 -75 -21 -25 -6 -53 -16 -62 -21 -10 -5 -27 -9 -37 -9 -11
0 -23 -4 -26 -10 -3 -5 -16 -10 -29 -10 -12 0 -26 -4 -32 -8 -5 -4 -27 -14
-49 -21 -41 -13 -58 -19 -110 -41 -16 -7 -39 -16 -50 -20 -100 -37 -468 -221
-580 -291 -161 -99 -235 -148 -315 -208 -41 -31 -84 -63 -96 -71 -173 -120
-476 -406 -669 -630 -97 -113 -275 -346 -275 -360 0 -6 -4 -10 -9 -10 -5 0
-16 -15 -25 -34 -8 -18 -22 -39 -31 -46 -8 -7 -15 -17 -15 -22 0 -5 -17 -35
-39 -66 -21 -31 -65 -106 -98 -167 -86 -160 -168 -332 -224 -472 -23 -58 -32
-79 -40 -95 -5 -10 -9 -27 -9 -37 0 -11 -4 -23 -10 -26 -5 -3 -10 -16 -10 -29
0 -12 -4 -26 -8 -31 -8 -10 -19 -42 -42 -125 -7 -25 -14 -51 -16 -58 -7 -23
-24 -2 -24 28 0 16 -4 31 -9 34 -5 3 -11 20 -14 38 -3 18 -10 52 -16 76 -67
263 -133 665 -160 972 -26 281 -31 404 -31 685 0 319 13 539 51 870 15 126 57
406 76 495 9 41 19 95 24 120 5 25 14 65 19 90 6 25 15 63 20 85 5 22 14 60
20 85 6 25 14 60 17 78 3 18 9 35 14 38 5 3 9 16 9 29 0 13 4 34 9 47 8 22 15
46 41 138 7 25 16 54 20 65 4 11 14 40 21 65 7 25 16 49 21 55 4 5 8 19 8 31
0 13 5 26 10 29 6 3 10 17 10 30 0 13 5 27 10 30 6 3 10 13 10 21 0 15 112
312 152 404 87 198 205 443 265 550 20 36 54 99 76 140 23 41 65 116 95 165
30 50 63 105 74 124 65 114 415 617 465 669 8 8 26 30 41 50 15 21 29 39 32
42 3 3 44 52 91 110 48 58 99 119 115 136 16 17 46 51 68 75 51 58 286 297
372 379 135 128 233 214 378 330 10 8 28 24 40 35 45 43 418 317 561 412 175
116 376 237 540 325 89 47 416 210 475 236 142 63 332 142 340 142 6 0 18 4
28 9 24 12 57 25 127 51 33 12 68 26 77 31 10 5 27 9 37 9 11 0 23 5 26 10 3
6 16 10 29 10 12 0 26 4 32 8 5 5 29 14 54 21 25 7 53 17 62 22 10 5 27 9 37
9 11 0 23 5 26 10 3 6 17 10 31 10 13 0 32 4 42 9 9 5 37 15 62 21 25 7 56 16
70 20 40 12 123 34 265 69 92 22 414 84 525 100 41 7 100 16 131 21 30 6 70
10 88 10 18 0 51 4 74 10 43 10 71 12 351 30 88 5 162 13 165 16 9 8 712 -4
871 -15z"/>
  </g>
</svg>